<svg width="127" height="38" viewBox="0 0 127 38" fill="none" xmlns="http://www.w3.org/2000/svg">
<g clip-path="url(#clip0_208_10202)">
<path d="M122.264 38H5.1801C2.7473 38 0.76709 36.0142 0.76709 33.5833V5.08306C0.76709 2.65119 2.7473 0.672852 5.1801 0.672852H122.264C124.696 0.672852 126.746 2.65119 126.746 5.08306V33.5833C126.746 36.0142 124.696 38 122.264 38Z" fill="#A6A6A6"/>
<path d="M125.843 33.585C125.843 35.5596 124.243 37.1591 122.265 37.1591H5.17989C3.20248 37.1591 1.59741 35.5596 1.59741 33.585V5.08289C1.59741 3.10922 3.20248 1.50415 5.17989 1.50415H122.264C124.243 1.50415 125.842 3.10922 125.842 5.08289L125.843 33.585Z" fill="black"/>
<path d="M28.8823 19.1346C28.8552 16.1269 31.3449 14.6637 31.4588 14.5956C30.0488 12.5398 27.8632 12.2589 27.0952 12.2365C25.2597 12.0433 23.4792 13.3348 22.5441 13.3348C21.5904 13.3348 20.1505 12.2552 18.5986 12.2869C16.6016 12.3177 14.7334 13.4739 13.7088 15.2693C11.5942 18.9302 13.1713 24.31 15.1972 27.2691C16.2106 28.7183 17.3948 30.3364 18.9449 30.2795C20.4613 30.217 21.0277 29.3127 22.8577 29.3127C24.6708 29.3127 25.2028 30.2795 26.7836 30.2431C28.411 30.217 29.4357 28.7874 30.4136 27.3251C31.5848 25.664 32.0551 24.0281 32.0738 23.9442C32.0355 23.9311 28.9131 22.7394 28.8823 19.1346Z" fill="white"/>
<path d="M25.8958 10.2904C26.7114 9.27042 27.2695 7.88278 27.1146 6.47461C25.9341 6.52687 24.4578 7.29114 23.6077 8.28871C22.8555 9.16777 22.1836 10.6086 22.3572 11.9636C23.6833 12.0625 25.0448 11.2945 25.8958 10.2904Z" fill="white"/>
<path d="M50.8275 30.0718H48.7083L47.5474 26.424H43.5123L42.4065 30.0718H40.3433L44.341 17.6531H46.8102L50.8275 30.0718ZM47.1975 24.8936L46.1476 21.6508C46.0366 21.3195 45.8285 20.5394 45.5215 19.3113H45.4841C45.3619 19.8395 45.165 20.6197 44.8944 21.6508L43.8632 24.8936H47.1975Z" fill="white"/>
<path d="M61.1081 25.4842C61.1081 27.0072 60.6966 28.211 59.8735 29.0947C59.1363 29.8814 58.2209 30.2742 57.1281 30.2742C55.9486 30.2742 55.1013 29.8506 54.5852 29.0032H54.5479V33.7205H52.5583V24.0649C52.5583 23.1074 52.5331 22.1248 52.4846 21.1169H54.2343L54.3454 22.5363H54.3827C55.0462 21.4669 56.0531 20.9331 57.4043 20.9331C58.4607 20.9331 59.3426 21.3502 60.048 22.1854C60.7554 23.0216 61.1081 24.1208 61.1081 25.4842ZM59.0813 25.557C59.0813 24.6854 58.8853 23.9669 58.4915 23.4014C58.0613 22.8116 57.4837 22.5167 56.7595 22.5167C56.2687 22.5167 55.8226 22.681 55.4241 23.0048C55.0247 23.3314 54.7634 23.7578 54.6412 24.286C54.5796 24.5324 54.5488 24.7339 54.5488 24.8926V26.3857C54.5488 27.037 54.7485 27.5867 55.1479 28.0355C55.5473 28.4844 56.0662 28.7084 56.7045 28.7084C57.4538 28.7084 58.037 28.4191 58.4542 27.8424C58.8722 27.2647 59.0813 26.5033 59.0813 25.557Z" fill="white"/>
<path d="M71.4075 25.4842C71.4075 27.0072 70.996 28.211 70.172 29.0947C69.4357 29.8814 68.5202 30.2742 67.4275 30.2742C66.2479 30.2742 65.4006 29.8506 64.8855 29.0032H64.8482V33.7205H62.8586V24.0649C62.8586 23.1074 62.8334 22.1248 62.7849 21.1169H64.5346L64.6457 22.5363H64.683C65.3456 21.4669 66.3525 20.9331 67.7046 20.9331C68.7601 20.9331 69.6419 21.3502 70.3493 22.1854C71.0538 23.0216 71.4075 24.1208 71.4075 25.4842ZM69.3806 25.557C69.3806 24.6854 69.1837 23.9669 68.7899 23.4014C68.3597 22.8116 67.784 22.5167 67.0589 22.5167C66.5671 22.5167 66.122 22.681 65.7226 23.0048C65.3232 23.3314 65.0628 23.7578 64.9406 24.286C64.8799 24.5324 64.8482 24.7339 64.8482 24.8926V26.3857C64.8482 27.037 65.0479 27.5867 65.4454 28.0355C65.8448 28.4835 66.3637 28.7084 67.0038 28.7084C67.7532 28.7084 68.3364 28.4191 68.7535 27.8424C69.1716 27.2647 69.3806 26.5033 69.3806 25.557Z" fill="white"/>
<path d="M82.9231 26.5893C82.9231 27.6456 82.5563 28.5051 81.8201 29.1686C81.011 29.8937 79.8847 30.2558 78.4373 30.2558C77.101 30.2558 76.0297 29.9982 75.2188 29.4821L75.6797 27.8239C76.5532 28.3521 77.5116 28.6171 78.5558 28.6171C79.3051 28.6171 79.8884 28.4473 80.3074 28.1094C80.7245 27.7716 80.9326 27.3181 80.9326 26.7526C80.9326 26.2487 80.7609 25.8241 80.4166 25.4797C80.0741 25.1354 79.502 24.8153 78.7032 24.5195C76.5289 23.7086 75.4427 22.5206 75.4427 20.9585C75.4427 19.9376 75.8235 19.1005 76.5859 18.4492C77.3455 17.7969 78.3589 17.4712 79.6262 17.4712C80.7562 17.4712 81.695 17.6681 82.4444 18.061L81.947 19.6828C81.2471 19.3021 80.4558 19.1117 79.5702 19.1117C78.8703 19.1117 78.3234 19.2844 77.9315 19.6278C77.6002 19.9348 77.4341 20.309 77.4341 20.7523C77.4341 21.2431 77.6236 21.649 78.0043 21.9682C78.3356 22.2631 78.9375 22.5822 79.8109 22.9266C80.8794 23.3568 81.6642 23.8597 82.1691 24.4364C82.6721 25.0113 82.9231 25.7308 82.9231 26.5893Z" fill="white"/>
<path d="M89.5009 22.6106H87.3079V26.9582C87.3079 28.0641 87.6942 28.6165 88.4688 28.6165C88.8243 28.6165 89.1192 28.5857 89.3525 28.5241L89.4075 30.0349C89.0156 30.1814 88.4996 30.2552 87.8603 30.2552C87.0746 30.2552 86.4606 30.0153 86.0173 29.5366C85.5759 29.057 85.3538 28.2526 85.3538 27.1225V22.6087H84.0474V21.1156H85.3538V19.476L87.3079 18.8862V21.1156H89.5009V22.6106Z" fill="white"/>
<path d="M99.3957 25.5207C99.3957 26.8971 99.0019 28.0272 98.2162 28.9109C97.3922 29.8208 96.2985 30.2743 94.9351 30.2743C93.6212 30.2743 92.5751 29.8385 91.795 28.9669C91.0148 28.0953 90.6248 26.9951 90.6248 25.669C90.6248 24.2814 91.026 23.1448 91.8314 22.2611C92.6348 21.3764 93.7192 20.9341 95.0826 20.9341C96.3965 20.9341 97.4538 21.3699 98.2516 22.2424C99.015 23.0888 99.3957 24.1815 99.3957 25.5207ZM97.3315 25.585C97.3315 24.7592 97.1551 24.0509 96.7977 23.4602C96.3806 22.7454 95.7843 22.3889 95.0116 22.3889C94.2119 22.3889 93.6044 22.7463 93.1873 23.4602C92.8299 24.0518 92.6535 24.7713 92.6535 25.6224C92.6535 26.4482 92.8299 27.1565 93.1873 27.7463C93.6175 28.4611 94.2184 28.8176 94.9939 28.8176C95.7535 28.8176 96.3498 28.4536 96.78 27.7276C97.1467 27.1257 97.3315 26.41 97.3315 25.585Z" fill="white"/>
<path d="M105.862 22.8667C105.666 22.8303 105.456 22.8116 105.235 22.8116C104.535 22.8116 103.994 23.0757 103.614 23.6048C103.282 24.0714 103.116 24.6612 103.116 25.3732V30.0717H101.128L101.146 23.937C101.146 22.9049 101.121 21.9652 101.072 21.1179H102.804L102.877 22.8312H102.932C103.142 22.2424 103.474 21.7683 103.927 21.4128C104.37 21.0927 104.849 20.9331 105.365 20.9331C105.549 20.9331 105.715 20.9462 105.862 20.9695V22.8667Z" fill="white"/>
<path d="M114.761 25.1706C114.761 25.5271 114.737 25.8276 114.688 26.073H108.719C108.743 26.9577 109.031 27.6342 109.585 28.1008C110.088 28.5179 110.739 28.727 111.537 28.727C112.421 28.727 113.227 28.5861 113.953 28.3033L114.264 29.6844C113.417 30.054 112.416 30.2378 111.262 30.2378C109.874 30.2378 108.784 29.8291 107.99 29.0125C107.199 28.196 106.802 27.0995 106.802 25.724C106.802 24.3737 107.171 23.2492 107.909 22.3524C108.682 21.395 109.726 20.9163 111.04 20.9163C112.331 20.9163 113.308 21.395 113.971 22.3524C114.497 23.113 114.761 24.0536 114.761 25.1706ZM112.863 24.6546C112.877 24.0648 112.747 23.5553 112.477 23.1251C112.133 22.5717 111.604 22.2955 110.892 22.2955C110.241 22.2955 109.712 22.5652 109.308 23.1064C108.977 23.5366 108.78 24.0527 108.719 24.6536H112.863V24.6546Z" fill="white"/>
<path d="M46.5398 10.0137C46.5398 11.112 46.2104 11.9388 45.5525 12.4941C44.9431 13.0064 44.0771 13.263 42.9555 13.263C42.3993 13.263 41.9234 13.2387 41.5249 13.1902V7.18892C42.0447 7.10494 42.6046 7.06201 43.2093 7.06201C44.2778 7.06201 45.0831 7.29437 45.6262 7.7591C46.2347 8.28448 46.5398 9.03569 46.5398 10.0137ZM45.5086 10.0407C45.5086 9.32871 45.3201 8.78279 44.9431 8.40206C44.5661 8.02225 44.0156 7.83188 43.2905 7.83188C42.9825 7.83188 42.7203 7.85241 42.5029 7.89534V12.4577C42.6233 12.4763 42.8435 12.4847 43.1636 12.4847C43.912 12.4847 44.4896 12.2766 44.8965 11.8604C45.3033 11.4442 45.5086 10.8377 45.5086 10.0407Z" fill="white"/>
<path d="M52.0072 10.9729C52.0072 11.6495 51.8141 12.2038 51.4277 12.6386C51.0227 13.0856 50.4861 13.3087 49.8161 13.3087C49.1704 13.3087 48.6562 13.095 48.2726 12.6657C47.89 12.2374 47.6987 11.6971 47.6987 11.0457C47.6987 10.3645 47.8956 9.8055 48.2913 9.37157C48.687 8.93765 49.2189 8.72021 49.8889 8.72021C50.5347 8.72021 51.0535 8.93391 51.4464 9.36224C51.8197 9.77844 52.0072 10.316 52.0072 10.9729ZM50.9929 11.0046C50.9929 10.5987 50.9051 10.2506 50.7306 9.96041C50.5253 9.60953 50.2332 9.4341 49.8534 9.4341C49.4606 9.4341 49.162 9.60953 48.9567 9.96041C48.7812 10.2506 48.6944 10.6043 48.6944 11.0224C48.6944 11.4283 48.7822 11.7764 48.9567 12.0666C49.1685 12.4175 49.4634 12.5929 49.8441 12.5929C50.2174 12.5929 50.5104 12.4147 50.7213 12.0573C50.9023 11.7614 50.9929 11.4106 50.9929 11.0046Z" fill="white"/>
<path d="M59.3382 8.81006L57.9618 13.2091H57.0659L56.4958 11.2988C56.3511 10.822 56.2335 10.3479 56.1421 9.87762H56.1243C56.0394 10.361 55.9218 10.8341 55.7707 11.2988L55.165 13.2091H54.2589L52.9646 8.81006H53.9696L54.467 10.9013C54.5874 11.3959 54.6863 11.8672 54.7656 12.3132H54.7834C54.8562 11.9455 54.9765 11.4771 55.1464 10.9106L55.7707 8.81099H56.5676L57.1658 10.8659C57.3104 11.367 57.428 11.8494 57.5185 12.3141H57.5456C57.6118 11.8616 57.7117 11.3791 57.8442 10.8659L58.378 8.81099H59.3382V8.81006Z" fill="white"/>
<path d="M64.4081 13.2084H63.4302V10.6888C63.4302 9.91244 63.1353 9.52424 62.5436 9.52424C62.2534 9.52424 62.0192 9.63062 61.8372 9.84432C61.6571 10.058 61.5657 10.31 61.5657 10.5983V13.2075H60.5877V10.0664C60.5877 9.68008 60.5756 9.26108 60.5522 8.80756H61.4117L61.4574 9.49531H61.4845C61.5983 9.28162 61.7682 9.10524 61.9912 8.96433C62.2562 8.80009 62.553 8.71704 62.8777 8.71704C63.2883 8.71704 63.6299 8.84955 63.9014 9.11551C64.2392 9.44119 64.4081 9.92738 64.4081 10.5731V13.2084Z" fill="white"/>
<path d="M67.105 13.2087H66.1279V6.79126H67.105V13.2087Z" fill="white"/>
<path d="M72.8629 10.9729C72.8629 11.6495 72.6698 12.2038 72.2834 12.6386C71.8784 13.0856 71.3409 13.3087 70.6718 13.3087C70.0251 13.3087 69.511 13.095 69.1283 12.6657C68.7457 12.2374 68.5544 11.6971 68.5544 11.0457C68.5544 10.3645 68.7513 9.8055 69.147 9.37157C69.5427 8.93765 70.0746 8.72021 70.7437 8.72021C71.3904 8.72021 71.9083 8.93391 72.3021 9.36224C72.6754 9.77844 72.8629 10.316 72.8629 10.9729ZM71.8476 11.0046C71.8476 10.5987 71.7599 10.2506 71.5854 9.96041C71.381 9.60953 71.088 9.4341 70.7092 9.4341C70.3154 9.4341 70.0167 9.60953 69.8124 9.96041C69.6369 10.2506 69.5501 10.6043 69.5501 11.0224C69.5501 11.4283 69.6379 11.7764 69.8124 12.0666C70.0242 12.4175 70.3191 12.5929 70.6998 12.5929C71.0731 12.5929 71.3652 12.4147 71.5761 12.0573C71.758 11.7614 71.8476 11.4106 71.8476 11.0046Z" fill="white"/>
<path d="M77.5963 13.2088H76.7181L76.6454 12.7021H76.6183C76.3178 13.1062 75.8895 13.3087 75.3333 13.3087C74.918 13.3087 74.5821 13.1752 74.3292 12.9102C74.0996 12.6694 73.9849 12.3699 73.9849 12.0143C73.9849 11.4768 74.2088 11.0672 74.6596 10.7835C75.1093 10.4998 75.742 10.3607 76.5567 10.3673V10.2852C76.5567 9.70565 76.2525 9.41637 75.6431 9.41637C75.2092 9.41637 74.8266 9.52555 74.4962 9.74205L74.2975 9.10002C74.7062 8.84713 75.2111 8.72021 75.8064 8.72021C76.9561 8.72021 77.5328 9.32678 77.5328 10.5399V12.1599C77.5328 12.5994 77.5543 12.9494 77.5963 13.2088ZM76.581 11.6971V11.0186C75.5022 11 74.9628 11.2958 74.9628 11.9052C74.9628 12.1347 75.0244 12.3064 75.1504 12.4212C75.2764 12.536 75.4369 12.5929 75.6282 12.5929C75.8428 12.5929 76.0435 12.5248 76.2264 12.3895C76.4102 12.2532 76.5231 12.0806 76.5651 11.8688C76.5754 11.8212 76.581 11.7633 76.581 11.6971Z" fill="white"/>
<path d="M83.1532 13.2087H82.2853L82.2396 12.5023H82.2125C81.9354 13.0398 81.4632 13.3086 80.7997 13.3086C80.2696 13.3086 79.8282 13.1005 79.4783 12.6843C79.1284 12.2681 78.9539 11.7278 78.9539 11.0643C78.9539 10.3523 79.1433 9.77557 79.524 9.33511C79.8926 8.92451 80.3443 8.71921 80.8818 8.71921C81.4725 8.71921 81.8859 8.91798 82.1211 9.31644H82.1397V6.79126H83.1186V12.0236C83.1186 12.4519 83.1298 12.8467 83.1532 13.2087ZM82.1397 11.3536V10.6201C82.1397 10.4932 82.1304 10.3905 82.1127 10.3121C82.0576 10.077 81.9391 9.87915 81.759 9.71958C81.577 9.56 81.3577 9.47975 81.1048 9.47975C80.74 9.47975 80.4544 9.62439 80.2444 9.91461C80.0363 10.2048 79.9309 10.5753 79.9309 11.0279C79.9309 11.4628 80.0307 11.8155 80.2314 12.0871C80.4432 12.3763 80.7288 12.521 81.0862 12.521C81.4072 12.521 81.6638 12.4006 81.8588 12.1589C82.0473 11.9359 82.1397 11.6671 82.1397 11.3536Z" fill="white"/>
<path d="M91.5175 10.9729C91.5175 11.6495 91.3243 12.2038 90.938 12.6386C90.533 13.0856 89.9973 13.3087 89.3264 13.3087C88.6815 13.3087 88.1674 13.095 87.7829 12.6657C87.4003 12.2374 87.209 11.6971 87.209 11.0457C87.209 10.3645 87.4059 9.8055 87.8016 9.37157C88.1972 8.93765 88.7291 8.72021 89.4001 8.72021C90.0449 8.72021 90.5647 8.93391 90.9566 9.36224C91.3299 9.77844 91.5175 10.316 91.5175 10.9729ZM90.504 11.0046C90.504 10.5987 90.4163 10.2506 90.2418 9.96041C90.0356 9.60953 89.7444 9.4341 89.3637 9.4341C88.9718 9.4341 88.6731 9.60953 88.4669 9.96041C88.2915 10.2506 88.2047 10.6043 88.2047 11.0224C88.2047 11.4283 88.2924 11.7764 88.4669 12.0666C88.6787 12.4175 88.9736 12.5929 89.3544 12.5929C89.7276 12.5929 90.0216 12.4147 90.2325 12.0573C90.4126 11.7614 90.504 11.4106 90.504 11.0046Z" fill="white"/>
<path d="M96.7756 13.2084H95.7986V10.6888C95.7986 9.91244 95.5037 9.52424 94.9111 9.52424C94.6209 9.52424 94.3867 9.63062 94.2056 9.84432C94.0246 10.058 93.9341 10.31 93.9341 10.5983V13.2075H92.9552V10.0664C92.9552 9.68008 92.944 9.26108 92.9207 8.80756H93.7792L93.8249 9.49531H93.852C93.9667 9.28162 94.1366 9.10524 94.3587 8.96433C94.6246 8.80009 94.9205 8.71704 95.2461 8.71704C95.6558 8.71704 95.9973 8.84955 96.2689 9.11551C96.6076 9.44119 96.7756 9.92738 96.7756 10.5731V13.2084Z" fill="white"/>
<path d="M103.357 9.54221H102.28V11.6792C102.28 12.2223 102.472 12.4939 102.85 12.4939C103.026 12.4939 103.171 12.4789 103.286 12.4481L103.311 13.19C103.118 13.2628 102.864 13.2992 102.552 13.2992C102.165 13.2992 101.865 13.1816 101.648 12.9465C101.429 12.7113 101.321 12.3156 101.321 11.7604V9.54221H100.678V8.80966H101.321V8.0034L102.279 7.71411V8.80873H103.356V9.54221H103.357Z" fill="white"/>
<path d="M108.534 13.2087H107.555V10.7078C107.555 9.91928 107.261 9.52454 106.67 9.52454C106.216 9.52454 105.906 9.75317 105.737 10.2104C105.708 10.3065 105.691 10.4241 105.691 10.5622V13.2078H104.714V6.79126H105.691V9.44242H105.71C106.018 8.95997 106.459 8.71921 107.031 8.71921C107.436 8.71921 107.771 8.85172 108.037 9.11768C108.368 9.44896 108.534 9.94167 108.534 10.593V13.2087Z" fill="white"/>
<path d="M113.875 10.8008C113.875 10.9763 113.862 11.1237 113.839 11.2441H110.906C110.919 11.6789 111.059 12.0102 111.33 12.2398C111.579 12.4451 111.899 12.5477 112.291 12.5477C112.724 12.5477 113.12 12.4787 113.477 12.3396L113.63 13.019C113.213 13.2 112.722 13.2905 112.153 13.2905C111.472 13.2905 110.936 13.0899 110.547 12.6886C110.157 12.2874 109.964 11.7489 109.964 11.0733C109.964 10.4098 110.144 9.85737 110.507 9.41691C110.886 8.94659 111.398 8.71143 112.045 8.71143C112.678 8.71143 113.158 8.94659 113.483 9.41691C113.745 9.79018 113.875 10.2521 113.875 10.8008ZM112.942 10.5479C112.949 10.2577 112.885 10.0076 112.752 9.79671C112.583 9.52516 112.324 9.38891 111.974 9.38891C111.655 9.38891 111.395 9.52143 111.196 9.78738C111.034 9.99921 110.937 10.2521 110.906 10.5479H112.942Z" fill="white"/>
</g>
<defs>
<clipPath id="clip0_208_10202">
<rect width="125.979" height="37.3272" fill="white" transform="translate(0.76709 0.672852)"/>
</clipPath>
</defs>
</svg>
