<svg width="127" height="38" viewBox="0 0 127 38" fill="none" xmlns="http://www.w3.org/2000/svg">
<g clip-path="url(#clip0_208_10234)">
<path d="M121.565 38.0001H4.92213C2.35593 38.0001 0.256348 35.9005 0.256348 33.3343V5.33961C0.256348 2.77341 2.35593 0.673828 4.92213 0.673828H121.565C124.131 0.673828 126.231 2.77341 126.231 5.33961V33.3343C126.231 35.9005 124.131 38.0001 121.565 38.0001Z" fill="#100F0D"/>
<path d="M121.565 0.673828H4.92213C2.35593 0.673828 0.256348 2.77341 0.256348 5.33961V33.3343C0.256348 35.9005 2.35593 38.0001 4.92213 38.0001H121.565C124.131 38.0001 126.231 35.9005 126.231 33.3343V5.33961C126.231 2.77341 124.131 0.673828 121.565 0.673828ZM121.565 1.41998C123.726 1.41998 125.484 3.17844 125.484 5.33961V33.3343C125.484 35.4955 123.726 37.2539 121.565 37.2539H4.92213C2.76096 37.2539 1.00326 35.4955 1.00326 33.3343V5.33961C1.00326 3.17844 2.76096 1.41998 4.92213 1.41998H121.565Z" fill="#A2A2A1"/>
<path d="M100.043 28.6685H101.785V17.0021H100.043V28.6685ZM115.727 21.2049L113.731 26.2626H113.671L111.6 21.2049H109.724L112.832 28.2738L111.06 32.2061H112.876L117.664 21.2053L115.727 21.2049ZM105.852 27.3434C105.283 27.3434 104.487 27.0579 104.487 26.3526C104.487 25.4522 105.478 25.107 106.332 25.107C107.098 25.107 107.459 25.2718 107.923 25.4971C107.788 26.5778 106.858 27.3433 105.852 27.3433L105.852 27.3434ZM106.063 20.9498C104.802 20.9498 103.496 21.5053 102.956 22.7359L104.502 23.3811C104.832 22.7359 105.447 22.526 106.093 22.526C106.993 22.526 107.908 23.0658 107.923 24.0267V24.1466C107.608 23.9665 106.932 23.6965 106.107 23.6965C104.441 23.6965 102.745 24.6117 102.745 26.3227C102.745 27.8836 104.111 28.8893 105.642 28.8893C106.812 28.8893 107.459 28.364 107.863 27.7484H107.923V28.6494H109.605V24.1764C109.605 22.1053 108.058 20.9498 106.063 20.9498V20.9498ZM95.3013 22.6251H92.8246V18.6264H95.3013C96.603 18.6264 97.342 19.704 97.342 20.6257C97.342 21.5298 96.603 22.6251 95.3013 22.6251ZM95.2565 17.0024H91.0842V28.6688H92.8247V24.2491H95.2565C97.1863 24.2491 99.0834 22.8523 99.0834 20.6261C99.0834 18.4004 97.1863 17.0029 95.2565 17.0029L95.2565 17.0024ZM72.5053 27.3453C71.3023 27.3453 70.2956 26.3378 70.2956 24.9552C70.2956 23.5566 71.3023 22.5348 72.5053 22.5348C73.6929 22.5348 74.625 23.5566 74.625 24.9552C74.625 26.3378 73.6929 27.3453 72.5053 27.3453ZM74.5047 21.858H74.4445C74.0538 21.3921 73.3017 20.9711 72.3551 20.9711C70.3703 20.9711 68.5514 22.7153 68.5514 24.9552C68.5514 27.1799 70.3703 28.9087 72.3551 28.9087C73.3017 28.9087 74.0537 28.4877 74.4445 28.0069H74.5047V28.5777C74.5047 30.0967 73.6929 30.9081 72.385 30.9081C71.318 30.9081 70.6565 30.1415 70.3856 29.4951L68.8675 30.1265C69.3031 31.1784 70.4604 32.4718 72.3851 32.4718C74.43 32.4718 76.1588 31.2688 76.1588 28.3371V21.2116H74.5047L74.5047 21.858ZM77.3617 28.6682H79.1049V17.0018H77.3617V28.6682ZM81.6758 24.8196C81.631 23.2861 82.8641 22.5046 83.7506 22.5046C84.4425 22.5046 85.0282 22.8505 85.2244 23.3462L81.6758 24.8196ZM87.0878 23.4964C86.7571 22.61 85.75 20.9711 83.6904 20.9711C81.6455 20.9711 79.9469 22.5797 79.9469 24.94C79.9469 27.165 81.631 28.9088 83.8855 28.9088C85.7044 28.9088 86.7572 27.7967 87.1934 27.15L85.8403 26.2478C85.3892 26.9094 84.7731 27.3454 83.8855 27.3454C82.999 27.3454 82.3673 26.9394 81.962 26.1426L87.2682 23.9478L87.0878 23.4964ZM44.8084 22.1889V23.8726H48.8373C48.717 24.8197 48.4013 25.5111 47.9202 25.9923C47.3337 26.5784 46.4166 27.2251 44.8083 27.2251C42.3277 27.2251 40.3886 25.2257 40.3886 22.7452C40.3886 20.2647 42.3277 18.265 44.8083 18.265C46.1464 18.265 47.1233 18.7913 47.845 19.4678L49.033 18.2799C48.0254 17.3179 46.6877 16.5813 44.8083 16.5813C41.4103 16.5813 38.554 19.3475 38.554 22.7452C38.554 26.1425 41.4103 28.9088 44.8083 28.9088C46.6422 28.9088 48.0255 28.3074 49.1077 27.1799C50.2203 26.0674 50.5661 24.504 50.5661 23.241C50.5661 22.8506 50.5358 22.4897 50.4757 22.1889H44.8084ZM55.1471 27.3453C53.9441 27.3453 52.9068 26.3531 52.9068 24.94C52.9068 23.5118 53.9441 22.5349 55.1471 22.5349C56.3496 22.5349 57.3869 23.5118 57.3869 24.94C57.3869 26.3531 56.3496 27.3453 55.1471 27.3453ZM55.1471 20.9711C52.9516 20.9711 51.1629 22.6398 51.1629 24.94C51.1629 27.2251 52.9516 28.9088 55.1471 28.9088C57.3418 28.9088 59.1309 27.2251 59.1309 24.94C59.1309 22.6398 57.3418 20.9711 55.1471 20.9711ZM63.8376 27.3453C62.6355 27.3453 61.5977 26.3531 61.5977 24.94C61.5977 23.5118 62.6355 22.5349 63.8376 22.5349C65.0405 22.5349 66.0776 23.5118 66.0776 24.94C66.0776 26.3531 65.0405 27.3453 63.8376 27.3453ZM63.8376 20.9711C61.6429 20.9711 59.8542 22.6398 59.8542 24.94C59.8542 27.2251 61.6429 28.9088 63.8376 28.9088C66.0331 28.9088 67.8218 27.2251 67.8218 24.94C67.8218 22.6398 66.0331 20.9711 63.8376 20.9711Z" fill="white"/>
<path d="M19.5868 18.7997L9.65259 29.3442C9.65296 29.3463 9.65371 29.3481 9.65406 29.3504C9.95873 30.4954 11.0046 31.3385 12.2457 31.3385C12.7419 31.3385 13.2077 31.2043 13.6072 30.9689L13.6389 30.9503L24.8217 24.4973L19.5873 18.7996" fill="#EB3131"/>
<path d="M29.6378 17.0043L29.6283 16.9978L24.8004 14.199L19.3611 19.0391L24.8193 24.4966L29.6217 21.7256C30.4637 21.2711 31.0353 20.3834 31.0353 19.3599C31.0353 18.3436 30.4714 17.4604 29.6378 17.0044" fill="#F6B60B"/>
<path d="M9.65093 9.33032C9.5912 9.55055 9.55981 9.78122 9.55981 10.0208V28.6538C9.55981 28.8929 9.59083 29.1244 9.6513 29.3438L19.9284 19.0688L9.6513 9.33059" fill="#5778C5"/>
<path d="M19.6605 19.3375L24.8027 14.1968L13.6326 7.72044C13.2266 7.47726 12.7527 7.33691 12.2456 7.33691C11.0044 7.33691 9.9572 8.18154 9.65247 9.32788C9.6521 9.329 9.6521 9.32977 9.6521 9.33075L19.6605 19.3377" fill="#3BAD49"/>
<path d="M44.4818 9.80039H41.7596V10.474H43.7995C43.7441 11.0238 43.5254 11.4553 43.1565 11.7688C42.7876 12.0824 42.3166 12.2398 41.7597 12.2398C41.1487 12.2398 40.6311 12.0269 40.2069 11.6041C39.7913 11.1725 39.5799 10.6388 39.5799 9.99586C39.5799 9.35292 39.7913 8.81921 40.2069 8.38766C40.6311 7.96485 41.1487 7.7534 41.7597 7.7534C42.0732 7.7534 42.3721 7.80734 42.6461 7.92547C42.9203 8.04352 43.1404 8.20831 43.3125 8.41977L43.8301 7.90215C43.5953 7.63527 43.2979 7.43118 42.9289 7.28244C42.5601 7.13369 42.1752 7.06231 41.7596 7.06231C40.9446 7.06231 40.2535 7.34514 39.6892 7.90945C39.1249 8.47513 38.842 9.17211 38.842 9.99587C38.842 10.8196 39.1249 11.5181 39.6892 12.0824C40.2535 12.6466 40.9446 12.9296 41.7596 12.9296C42.6155 12.9296 43.2979 12.6554 43.8228 12.0984C44.285 11.6348 44.5211 11.0078 44.5211 10.2234C44.5211 10.0907 44.5051 9.94925 44.4818 9.8005L44.4818 9.80039ZM45.5364 7.18758V12.8041H48.8155V12.1144H46.2582V10.3327H48.5648V9.65905H46.2582V7.87875H48.8155V7.18756L45.5364 7.18758ZM53.4136 7.87877V7.18758H49.5541V7.87877H51.1231V12.8041H51.8448V7.87877H53.4136ZM56.9078 7.18758H56.1861V12.8041H56.9078V7.18758ZM61.6716 7.87877V7.18758H57.8122V7.87877H59.381V12.8041H60.1027V7.87877H61.6716ZM68.9546 7.91815C68.3976 7.3451 67.7153 7.06226 66.9002 7.06226C66.0837 7.06226 65.4014 7.34509 64.8444 7.9094C64.2874 8.4664 64.0133 9.16478 64.0133 9.99582C64.0133 10.8269 64.2874 11.5254 64.8444 12.0824C65.4014 12.6466 66.0837 12.9295 66.9002 12.9295C67.7079 12.9295 68.3976 12.6466 68.9546 12.0824C69.5117 11.5254 69.7857 10.8269 69.7857 9.99582C69.7857 9.17206 69.5116 8.47504 68.9546 7.91815ZM65.362 8.38761C65.7775 7.9648 66.2879 7.75335 66.9002 7.75335C67.5111 7.75335 68.0215 7.96481 68.4297 8.38761C68.8453 8.80315 69.0494 9.34548 69.0494 9.99581C69.0494 10.6476 68.8453 11.1885 68.4297 11.6041C68.0215 12.0269 67.5111 12.2397 66.9002 12.2397C66.2879 12.2397 65.7775 12.0269 65.362 11.6041C64.9551 11.1798 64.7511 10.6476 64.7511 9.99581C64.7511 9.34549 64.9551 8.81188 65.362 8.38761ZM71.5004 9.30621L71.4698 8.22279H71.5004L74.3553 12.804H75.1091V7.18752H74.3874V10.474L74.4179 11.5574H74.3874L71.6579 7.18752H70.7787V12.804H71.5004V9.30621Z" fill="white" stroke="white" stroke-width="0.248842" stroke-miterlimit="10"/>
</g>
<defs>
<clipPath id="clip0_208_10234">
<rect width="125.979" height="37.327" fill="white" transform="translate(0.25415 0.672852)"/>
</clipPath>
</defs>
</svg>
